<?xml version="1.0" encoding="UTF-8"?>
<!DOCTYPE svg PUBLIC "-//W3C//DTD SVG 1.0//EN" "http://www.w3.org/TR/2001/REC-SVG-20010904/DTD/svg10.dtd">
<!-- Creator: CorelDRAW X7 -->
<svg xmlns="http://www.w3.org/2000/svg" xml:space="preserve" width="529px" height="396px" version="1.0" style="shape-rendering:geometricPrecision; text-rendering:geometricPrecision; image-rendering:optimizeQuality; fill-rule:evenodd; clip-rule:evenodd"
viewBox="0 0 420 315"
 xmlns:xlink="http://www.w3.org/1999/xlink">
 <defs>
  <style type="text/css">
   <![CDATA[
    .fil0 {fill:#008AB9}
    .fil1 {fill:white}
   ]]>
  </style>
 </defs>
 <g id="Layer_x0020_1">
  <metadata id="CorelCorpID_0Corel-Layer"/>
  <path class="fil0" d="M220 0l-20 0c-2,1 -6,0 -13,3 -10,3 -20,12 -24,22 -4,10 -4,16 -4,27 0,21 0,42 0,62 0,15 7,28 19,35 11,8 19,7 32,7 12,0 18,1 27,-4 15,-6 24,-21 24,-38l0 -62c0,-15 1,-25 -9,-37 -13,-15 -30,-14 -32,-15zm-7 72l0 -59c-13,0 -21,-1 -29,6 -17,12 -16,35 -1,47 9,7 17,6 30,6zm-5 72l11 0c16,0 30,-13 30,-29 0,-12 -6,-20 -12,-25 -3,-2 -8,-4 -12,-5 -4,-1 -14,-1 -17,0l0 59zm-13 -1l0 -59c-7,-1 -14,-4 -19,-7 -1,-2 -3,-3 -4,-4 -1,7 0,15 0,23 0,16 -3,27 8,39 3,3 9,7 15,8zm31 -129l0 58c9,3 13,4 20,10 1,0 1,0 1,1 1,1 1,0 2,1 0,-8 0,-16 0,-23 0,-11 1,-23 -4,-32 -1,-3 -3,-6 -4,-7 -1,-1 -1,-1 -2,-1l-5 -4c-2,-1 -6,-3 -8,-3l0 0z"/>
  <path class="fil1" d="M74 186c-17,2 -24,14 -23,33 1,18 12,27 30,25 17,-2 24,-15 23,-32 0,-7 -3,-16 -8,-20 -6,-5 -13,-7 -22,-6zm2 10c-11,1 -13,10 -13,21 0,11 4,19 17,17 5,0 8,-3 10,-7 2,-4 2,-9 2,-14 0,-11 -5,-19 -16,-17z"/>
  <path id="d" class="fil1" d="M170 258c-4,1 -3,5 -3,10l0 39c0,5 0,7 6,7 11,0 23,1 32,-6 12,-9 16,-44 -10,-49 -4,-1 -8,-1 -12,-1 -3,0 -11,-1 -13,0zm9 47c15,1 23,-4 23,-19 0,-16 -9,-20 -23,-19l0 38z"/>
  <path id="D" class="fil1" d="M0 189l0 52c1,1 1,2 3,2l14 0c18,0 29,-7 30,-28 0,-13 -5,-21 -14,-25 -7,-4 -17,-3 -26,-3 -6,0 -5,0 -7,2zm11 45c7,0 14,0 18,-3 2,-2 3,-4 4,-7 3,-7 2,-19 -4,-24 -4,-4 -10,-4 -18,-4l0 38z"/>
  <path class="fil1" d="M53 315c9,0 9,0 9,-6l0 -42c3,7 10,30 13,38 1,2 2,4 2,7 1,2 4,2 7,2 3,0 5,0 5,-2 1,-3 2,-5 3,-7 1,-4 3,-8 4,-13 2,-4 3,-8 5,-12 1,-2 1,-5 2,-7 1,-2 2,-4 2,-6 1,13 1,29 0,42 0,6 0,6 10,6 0,-1 1,-1 1,-3l0 -45c0,-7 1,-9 -7,-9 -6,0 -9,-1 -12,4 -1,2 -1,4 -2,6 -1,4 -11,29 -11,29 -1,-1 -8,-20 -9,-24 -6,-15 -3,-15 -17,-15 -8,0 -7,2 -7,10l0 41c0,3 -1,5 2,6z"/>
  <path id="B_x0020_hitam" class="fil1" d="M221 191l0 48c0,3 2,4 4,4l16 0c26,0 26,-27 10,-30 0,0 0,0 0,0 0,0 4,-2 5,-4 5,-6 5,-22 -16,-22l-15 0c-2,0 -4,1 -4,4zm12 18l0 1c6,0 12,1 14,-5 1,-3 0,-6 -1,-7 -3,-3 -9,-2 -13,-2l0 13zm0 10l0 15 8 0c5,0 9,-2 9,-7 0,-9 -9,-9 -17,-9l0 1z"/>
  <path class="fil1" d="M121 200c1,2 3,6 4,8 3,7 8,16 12,23 1,2 3,5 4,7 1,3 3,5 7,5 11,0 9,0 9,-13l0 -35c0,-4 2,-8 -3,-8 -8,0 -7,-1 -7,17 0,8 0,16 0,23l-7 -15c-2,-3 -11,-21 -13,-23 -2,-2 -5,-2 -9,-2 -8,0 -7,2 -7,17l0 35c0,5 2,4 7,4 5,0 4,-5 4,-8 0,-12 0,-24 -1,-35z"/>
  <path class="fil1" d="M330 200c1,2 2,5 3,8 5,9 11,20 16,30 1,3 3,5 7,5 11,1 10,0 10,-13l0 -35c0,-4 1,-8 -4,-8 -8,0 -7,-1 -7,17l0 23c-1,-1 -2,-6 -3,-8 -3,-4 -15,-28 -17,-30 -2,-2 -6,-2 -9,-2 -5,0 -7,1 -7,5l0 47c0,5 3,4 8,4 4,0 3,-5 3,-8l0 -35z"/>
  <path class="fil1" d="M298 301l20 0c1,0 3,8 3,10 1,2 2,2 5,2 1,0 5,1 6,0 2,-1 1,-3 1,-5l-16 -46c-2,-5 -3,-5 -9,-5 -9,0 -7,0 -12,15l-11 30c0,3 -3,9 -2,11 2,1 4,0 6,0 5,0 4,-1 6,-7 1,-1 1,-5 3,-5zm2 -9l15 0 -7 -24 -8 24z"/>
  <path id="A_x0020_hitam" class="fil1" d="M278 230l20 0c1,1 4,9 4,10 1,3 1,3 4,3 9,0 9,1 6,-10 -2,-3 -3,-7 -4,-10l-10 -31c-2,-5 -3,-5 -9,-5 -5,0 -7,-1 -9,4 -4,13 -9,27 -14,41 -1,2 -4,8 -2,10 1,1 4,1 6,1 3,0 4,0 4,-2 1,-2 3,-10 4,-11zm2 -9l16 0c0,-1 -7,-19 -8,-23 -1,1 -1,4 -2,6 -1,3 -6,16 -6,17z"/>
  <path class="fil1" d="M398 220l11 0 0 13c-3,1 -5,2 -9,1 -9,0 -14,-6 -16,-16 -1,-13 6,-23 20,-22 4,0 9,1 12,3 1,1 3,2 4,1 1,-1 1,-8 -1,-9 -4,-5 -19,-6 -26,-4 -6,2 -10,4 -13,8 -8,8 -9,23 -5,33 4,10 12,16 26,16 5,0 15,-1 18,-4 2,-1 1,-6 1,-9 0,-3 0,-7 0,-10 0,-11 1,-10 -12,-10 -1,0 -9,0 -10,0 -2,1 -1,7 0,9z"/>
  <path class="fil1" d="M201 220c0,1 0,11 0,13 -4,1 -5,2 -9,1 -10,0 -15,-7 -16,-17 -1,-14 7,-23 21,-21 11,1 14,8 15,2 1,-7 -2,-9 -10,-11 -15,-3 -26,2 -32,10 -7,9 -8,24 -2,34 7,13 24,16 39,11 4,-1 5,-2 5,-6 0,-4 0,-20 0,-22 -1,-4 -4,-3 -8,-3 -3,0 -7,0 -11,0 -5,0 -2,8 -2,8 1,2 7,1 10,1z"/>
  <path class="fil1" d="M138 305l0 -16c3,0 7,0 10,0 5,0 7,1 7,-4 0,-5 -2,-5 -7,-5 -3,0 -7,0 -10,0l0 -13c4,0 7,0 11,0 7,0 12,1 11,-7 -1,-2 -2,-2 -4,-2l-23 0c-5,0 -7,-1 -7,5l0 46c0,5 2,5 7,5l23 0c2,0 3,0 4,-2 0,-1 0,-5 -1,-5 -1,-3 -7,-2 -9,-2 -4,0 -8,0 -12,0z"/>
  <path class="fil1" d="M262 257c-10,1 -16,7 -19,15 -4,8 -4,21 -1,29 4,8 10,13 21,14 5,0 18,-1 18,-8 1,-2 1,-7 -1,-6 -1,0 -4,2 -6,3 -7,2 -15,1 -19,-5 -5,-9 -5,-34 13,-32 8,0 10,5 12,4 2,-1 1,-5 1,-7 0,-3 -2,-4 -4,-5 -4,-2 -10,-3 -15,-2z"/>
  <path class="fil1" d="M350 304c0,-14 0,-29 0,-43 0,-5 -2,-4 -7,-4 -5,0 -4,2 -4,7l0 43c0,8 -1,7 15,7 16,0 16,1 15,-7 0,-4 -4,-3 -8,-3 -3,0 -7,0 -11,0z"/>
  <path class="fil1" d="M223 258c-3,1 -2,3 -2,6l0 43c0,2 0,6 1,7 1,1 7,1 9,1 2,-1 2,-4 2,-7l0 -43c0,-2 0,-6 -2,-7 -1,0 -7,-1 -8,0z"/>
 </g>
</svg>
