<?xml version="1.0" encoding="UTF-8"?>
<!DOCTYPE svg PUBLIC "-//W3C//DTD SVG 1.0//EN" "http://www.w3.org/TR/2001/REC-SVG-20010904/DTD/svg10.dtd">
<!-- Creator: CorelDRAW X7 -->
<svg xmlns="http://www.w3.org/2000/svg" xml:space="preserve" width="426px" height="427px" version="1.0" style="shape-rendering:geometricPrecision; text-rendering:geometricPrecision; image-rendering:optimizeQuality; fill-rule:evenodd; clip-rule:evenodd"
viewBox="0 0 624 624"
 xmlns:xlink="http://www.w3.org/1999/xlink">
 <defs>
  <style type="text/css">
   <![CDATA[
    .str0 {stroke:white;stroke-width:11.6983}
    .fil0 {fill:none}
    .fil1 {fill:white}
   ]]>
  </style>
 </defs>
 <g id="Layer_x0020_1">
  <metadata id="CorelCorpID_0Corel-Layer"/>
  <path class="fil0 str0" d="M299 6c-68,4 -131,28 -181,69l-10 9c-2,1 -3,2 -5,4 -9,7 -14,15 -19,19l-13 16c-17,22 -31,46 -42,73 -33,80 -31,174 8,251 9,18 25,44 38,58 3,4 6,8 8,11 7,6 12,13 19,19 7,6 14,12 21,18 57,44 126,68 202,65 57,-3 115,-22 158,-53 2,-1 4,-2 6,-4l27 -21c15,-14 23,-22 37,-39 44,-59 68,-126 64,-203 -1,-44 -14,-87 -31,-122 -4,-8 -9,-17 -13,-24 -3,-4 -5,-8 -8,-12 -58,-86 -161,-139 -266,-134z"/>
  <path class="fil1" d="M237 114c0,4 1,-2 1,12l6 200 56 -4 0 -51c3,3 34,50 35,53l48 -7c-2,-5 -38,-71 -41,-80 5,-3 11,-12 15,-19 4,-7 8,-16 9,-26 1,-21 -4,-45 -14,-56 -13,-14 -29,-19 -49,-21 -19,-2 -48,-4 -66,-1zm58 90c11,-2 21,-9 20,-22 -2,-12 -13,-17 -24,-19l4 41z"/>
  <path class="fil1" d="M109 326l117 0 0 -58 -56 0 0 -24 49 0 0 -43 -52 0 -2 -28 55 -3 0 -54 -111 0 0 210z"/>
  <path class="fil1" d="M176 351l8 158c65,10 100,-20 97,-85 -1,-19 -6,-38 -17,-52 -12,-15 -25,-22 -46,-24 -11,-2 -33,-1 -42,3zm44 108c5,0 12,-7 14,-10 4,-6 7,-12 7,-20 1,-15 -9,-28 -23,-30l2 60z"/>
  <path class="fil1" d="M300 511l89 0 0 -44c-12,0 -33,0 -43,0l0 -18c7,-1 29,-1 38,-1l0 -33 -40 0 -2 -21 43 -3 0 -41c-12,-1 -60,0 -77,0 -11,0 -8,-7 -8,37 0,41 0,83 0,124z"/>
  <path class="fil1" d="M439 453c-8,3 -30,17 -35,18 3,9 16,20 23,26 9,6 21,11 35,13 17,3 27,0 37,-9 7,-7 16,-18 15,-33 -1,-14 -7,-26 -14,-34 -17,-18 -44,-26 -45,-38 -1,-4 1,-8 3,-10 9,-8 24,6 30,14 1,-1 24,-25 25,-28 -2,-2 -3,-4 -5,-6 -4,-6 -12,-11 -20,-14 -65,-26 -101,47 -46,88 4,3 9,6 14,9 5,2 10,5 13,9 3,4 2,13 -4,14 -7,0 -16,-8 -21,-13l-5 -6z"/>
 </g>
</svg>
