<?xml version="1.0" encoding="UTF-8"?>
<!DOCTYPE svg PUBLIC "-//W3C//DTD SVG 1.0//EN" "http://www.w3.org/TR/2001/REC-SVG-20010904/DTD/svg10.dtd">
<!-- Creator: CorelDRAW X7 -->
<svg xmlns="http://www.w3.org/2000/svg" xml:space="preserve" width="1449px" height="1449px" version="1.0" style="shape-rendering:geometricPrecision; text-rendering:geometricPrecision; image-rendering:optimizeQuality; fill-rule:evenodd; clip-rule:evenodd"
viewBox="0 0 1458 1458"
 xmlns:xlink="http://www.w3.org/1999/xlink">
 <defs>
  <style type="text/css">
   <![CDATA[
    .str0 {stroke:#FEFEFE;stroke-width:3.14819}
    .str1 {stroke:#FEFEFE;stroke-width:3.14819}
    .fil12 {fill:none}
    .fil0 {fill:none;fill-rule:nonzero}
    .fil8 {fill:#FEFEFE}
    .fil10 {fill:#BD283E}
    .fil9 {fill:#242222}
    .fil11 {fill:#273C76}
    .fil7 {fill:#FEFEFE;fill-rule:nonzero}
    .fil1 {fill:#0172BB;fill-rule:nonzero}
    .fil5 {fill:#24A620;fill-rule:nonzero}
    .fil6 {fill:#32318F;fill-rule:nonzero}
    .fil2 {fill:#DB0F10;fill-rule:nonzero}
    .fil4 {fill:#E53990;fill-rule:nonzero}
    .fil3 {fill:#FDB620;fill-rule:nonzero}
   ]]>
  </style>
 </defs>
 <g id="Layer_x0020_1">
  <metadata id="CorelCorpID_0Corel-Layer"/>
  <path class="fil0 str0" d="M729 2c-402,0 -727,325 -727,727 0,401 325,727 727,727 401,0 727,-326 727,-727 0,-402 -326,-727 -727,-727z"/>
  <path class="fil1" d="M596 319c155,-2 267,91 295,244 3,16 -6,30 -21,35 0,0 0,0 0,0 -17,4 -34,-6 -38,-22 -27,-121 -114,-193 -238,-197 -17,0 -30,-15 -28,-32 0,0 0,-1 0,-1 1,-15 14,-27 30,-27z"/>
  <path class="fil1" d="M890 354c-20,25 -57,28 -81,8 -25,-20 -28,-57 -8,-81 20,-25 57,-28 81,-8 25,20 28,57 8,81z"/>
  <path class="fil2" d="M305 641c76,-136 212,-187 359,-134 15,5 23,20 19,35 0,0 0,1 0,1 -4,16 -21,26 -37,21 -119,-37 -224,3 -290,108 -9,15 -28,18 -42,9 0,-1 0,-1 0,-1 -13,-9 -17,-26 -9,-39z"/>
  <path class="fil2" d="M482 403c12,30 -4,64 -33,75 -30,11 -63,-4 -74,-34 -12,-30 4,-63 33,-74 30,-12 63,4 74,33z"/>
  <path class="fil3" d="M438 1054c-79,-134 -55,-278 64,-379 11,-10 29,-9 40,2 0,0 0,0 0,0 13,12 12,32 0,43 -91,84 -110,196 -51,305 8,15 1,34 -14,41 0,0 0,0 0,0 -14,7 -31,1 -39,-12z"/>
  <path class="fil3" d="M321 781c32,6 53,35 48,67 -6,31 -35,52 -67,47 -31,-5 -52,-35 -47,-66 5,-32 35,-53 66,-48z"/>
  <path class="fil4" d="M862 1145c-156,1 -268,-91 -296,-244 -2,-16 7,-30 21,-35 1,0 1,0 1,0 16,-4 33,6 37,22 28,121 115,193 238,197 17,0 30,15 29,32 0,0 0,1 0,1 -2,15 -14,27 -30,27z"/>
  <path class="fil4" d="M568 1110c20,-25 56,-28 81,-8 24,20 28,57 8,81 -21,25 -57,28 -81,8 -25,-20 -28,-57 -8,-81z"/>
  <path class="fil5" d="M1153 823c-77,136 -213,186 -360,134 -14,-5 -22,-20 -19,-35 0,0 0,-1 1,-1 4,-16 21,-26 37,-21 118,37 224,-3 289,-108 9,-15 28,-18 42,-9 1,0 1,1 1,1 13,9 16,26 9,39z"/>
  <path class="fil5" d="M975 1061c-11,-30 4,-64 34,-75 30,-11 63,4 74,34 11,30 -4,63 -34,74 -30,12 -63,-4 -74,-33z"/>
  <path class="fil6" d="M1019 410c80,134 55,278 -63,379 -12,10 -29,9 -40,-2 0,0 -1,0 -1,0 -12,-12 -12,-32 1,-43 91,-84 109,-196 51,-305 -8,-15 -2,-34 14,-41 0,0 0,0 0,0 14,-7 31,-1 38,12z"/>
  <path class="fil6" d="M1136 683c-31,-6 -52,-35 -47,-67 5,-31 35,-52 66,-47 32,5 53,35 47,66 -5,32 -35,53 -66,48z"/>
  <path class="fil7" d="M134 630c1,-2 1,-3 2,-3 1,-1 2,-1 4,-1l14 2c2,0 3,1 4,1 1,1 1,3 1,5l-10 72c0,2 -1,3 -2,4 -1,0 -2,0 -4,0l-104 -14c-2,0 -3,-1 -4,-2 0,-1 0,-2 0,-3l2 -18c0,-1 1,-2 2,-3 1,-1 2,-1 4,-1l85 11 6 -50z"/>
  <path class="fil7" d="M74 515c5,-14 12,-24 22,-29 10,-5 20,-5 32,-1 11,4 19,11 23,21 5,10 4,22 -1,36l-5 16 27 10c2,0 3,1 3,2 1,1 1,3 0,4l-6 16c0,2 -1,3 -2,4 -1,0 -2,0 -4,0l-99 -36c-2,0 -3,-1 -3,-2 -1,-1 -1,-2 0,-4l13 -37zm54 19c2,-6 2,-12 0,-16 -2,-4 -5,-6 -9,-8 -4,-1 -8,-1 -12,1 -4,2 -8,6 -10,12l-5 16 30 11 6 -16z"/>
  <path class="fil7" d="M167 337c0,-2 1,-2 3,-2 1,1 1,2 2,3l15 56 72 1c2,0 3,0 4,1 1,1 1,3 0,4l-12 18c-1,2 -2,3 -3,4 -2,0 -4,1 -6,1 0,0 -2,-1 -5,-1 -3,0 -7,0 -13,0 -5,0 -10,0 -16,0 -5,0 -10,0 -15,-1l4 16 26 16c2,1 3,2 3,3 0,2 0,3 -1,4l-9 15c-1,1 -2,2 -3,2 -1,1 -2,0 -4,-1l-89 -55c-2,-1 -3,-2 -3,-4 0,-1 0,-2 1,-3l10 -15c0,-1 1,-2 2,-3 1,0 3,0 4,1l34 21 -15 -52c-1,-2 -1,-4 -1,-5 0,-1 1,-3 2,-4l13 -20z"/>
  <path class="fil7" d="M314 187c2,-2 3,-2 4,-2 1,0 2,1 3,2l48 59c4,5 7,10 8,16 1,5 1,10 -1,15 -1,5 -3,9 -6,14 -4,4 -7,8 -11,11 -6,5 -13,8 -19,10 -7,2 -13,2 -20,0 -6,-3 -12,-7 -17,-13 0,0 -1,-1 -1,-3 -1,-1 0,-2 1,-3l15 -12c1,-1 2,-2 3,-1 1,0 2,1 2,1 4,4 7,6 11,6 3,0 6,-1 9,-4 5,-3 7,-7 7,-11 0,-4 -2,-8 -5,-12l-33 -40 -24 19c-1,2 -3,2 -4,2 -1,-1 -2,-1 -3,-3l-9 -11c-1,-1 -1,-2 -1,-3 -1,-1 0,-3 2,-4l41 -33z"/>
  <path class="fil7" d="M450 111c2,-1 3,-1 4,-1 1,0 2,1 3,3l34 67c3,6 4,12 4,17 0,6 -2,11 -4,16 -3,5 -7,9 -11,13 -4,3 -9,6 -13,9 -5,2 -10,4 -15,5 -6,1 -11,1 -17,1 -5,-1 -10,-2 -15,-5 -5,-3 -8,-8 -12,-14l-34 -67c0,-2 -1,-3 0,-4 0,-1 1,-2 3,-3l15 -8c2,0 3,-1 4,0 1,0 2,1 3,3l32 63c3,5 6,8 10,9 5,1 10,1 15,-2 5,-3 8,-6 10,-10 2,-5 1,-9 -1,-14l-32 -63c-1,-2 -2,-4 -1,-5 0,-1 1,-2 3,-2l15 -8z"/>
  <path class="fil7" d="M602 65c1,-1 3,-1 4,0 1,0 1,1 2,3l25 102c0,2 0,3 0,4 -1,1 -2,2 -4,2l-15 4c-2,1 -4,1 -5,0 -1,-1 -3,-2 -4,-4l-51 -49 15 59c0,2 0,3 0,4 -1,1 -2,2 -4,2l-17 4c-1,1 -2,1 -3,0 -1,0 -2,-1 -3,-3l-25 -102c0,-2 0,-3 0,-4 1,-1 2,-2 4,-2l16 -4c2,-1 4,-1 5,0 1,1 2,2 4,4l50 49 -14 -59c-1,-2 -1,-4 0,-4 1,-1 2,-2 3,-2l17 -4z"/>
  <path class="fil7" d="M759 105c2,0 3,0 4,1 1,1 1,2 1,4l1 25c-1,6 -2,12 -5,16 -3,5 -7,9 -11,12 -5,3 -10,5 -15,7 -6,1 -11,2 -16,2 -5,0 -10,0 -16,-2 -5,-1 -10,-3 -15,-6 -5,-3 -9,-7 -12,-11 -3,-5 -4,-11 -5,-18l0 -43c0,-7 1,-13 4,-18 3,-5 6,-9 11,-12 5,-4 10,-6 15,-8 6,-1 11,-2 16,-2 6,0 11,0 17,2 5,1 10,4 15,6 5,3 9,7 11,12 3,4 5,9 5,15 0,2 0,3 -1,4 -1,1 -2,1 -4,1l-17 0c-3,0 -4,0 -4,-2 0,-1 -1,-2 -1,-4 -1,-2 -3,-5 -7,-7 -3,-2 -8,-3 -13,-3 -6,0 -11,2 -14,6 -4,3 -5,8 -5,13l0 35c0,6 2,10 6,13 3,3 8,5 14,5 6,0 10,-2 14,-5 3,-3 5,-7 5,-14l-16 0c-2,0 -3,0 -4,-1 -1,-1 -1,-2 -1,-4l0 -14c0,-1 0,-2 1,-3 0,-1 2,-2 4,-2l38 0z"/>
  <path class="fil7" d="M941 139c3,1 6,4 9,6 3,2 5,5 8,8 2,3 4,7 4,11 1,5 0,10 -1,15 -3,8 -7,14 -12,18 -6,4 -12,6 -20,6 -7,1 -15,0 -24,-3 -5,-2 -10,-4 -15,-7 -5,-4 -9,-7 -12,-12 -4,-4 -6,-9 -7,-14 -2,-6 -1,-11 1,-17 0,-2 1,-3 2,-3 1,-1 2,-1 4,0l16 5c2,1 3,2 4,2 1,1 1,3 1,5 -1,1 -1,2 -1,3 0,2 1,3 2,5 1,2 2,4 5,6 3,2 6,3 9,4 5,2 9,2 12,2 4,0 7,-3 8,-8 1,-3 0,-5 -2,-8 -2,-2 -6,-5 -10,-7 -4,-2 -8,-5 -12,-8 -5,-4 -10,-7 -14,-11 -4,-4 -7,-9 -9,-14 -1,-5 -1,-12 1,-19 2,-7 6,-12 12,-16 5,-3 11,-5 18,-6 7,0 14,0 21,2 6,2 11,4 16,7 4,3 9,7 12,11 3,4 6,8 7,13 1,5 1,10 -1,15 0,2 -1,4 -2,4 -1,0 -2,0 -4,0l-16 -6c-2,0 -3,-1 -3,-2 0,-1 0,-2 0,-4 0,-1 -1,-2 -1,-3 0,0 -1,-2 -1,-3 -1,-2 -3,-4 -5,-5 -3,-2 -5,-3 -8,-4 -2,-1 -4,-1 -6,-1 -3,0 -5,0 -7,1 -2,1 -4,2 -5,5 -1,2 0,5 2,8 2,2 5,5 8,7 3,3 6,5 9,7 3,2 6,3 7,5z"/>
  <path class="fil7" d="M1071 272c-1,1 -1,2 -2,3 -1,1 -2,1 -4,0l-15 -9c-2,-1 -3,-2 -3,-3 -1,-1 -1,-3 0,-5l2 -15 -37 -21 -11 9c-2,2 -3,2 -4,3 -1,0 -3,-1 -4,-2l-16 -9c-2,-1 -2,-2 -2,-3 0,-1 1,-2 2,-3l86 -71c2,-1 3,-1 5,-2 1,0 3,0 4,1l15 9c1,1 2,2 3,3 0,2 0,3 0,5l-19 110zm-8 -94l-31 27 23 13 8 -40z"/>
  <path class="fil7" d="M1164 356c0,1 -1,2 -2,3 -1,1 -2,0 -3,-1l-15 -14c-2,-1 -3,-3 -3,-4 -1,-2 -1,-3 0,-6l5 -33c0,-1 1,-3 1,-4 1,-1 2,-2 4,-4l10 -10c1,-1 2,-2 3,-2 1,0 2,0 4,2l2 2c3,3 7,5 12,5 4,0 7,-1 10,-4 3,-3 5,-7 4,-11 0,-4 -2,-8 -5,-11l-17 -16 -59 63c-1,1 -2,2 -4,2 -1,-1 -2,-1 -3,-2l-13 -12c-1,-1 -1,-2 -2,-3 0,-1 1,-3 2,-4l72 -77c1,-1 2,-1 3,-2 1,0 3,1 4,2l32 30c5,5 9,9 11,12 3,4 4,7 5,10 1,3 2,7 2,10 0,5 -1,9 -3,14 -2,5 -5,9 -8,13 -5,5 -9,8 -14,9 -6,2 -11,3 -15,3 -5,-1 -10,-1 -13,-3l-7 43z"/>
  <path class="fil7" d="M1243 468c0,1 -1,2 -2,2 -1,1 -2,0 -3,-2l-11 -15c-1,-1 -1,-3 -1,-4 0,-1 1,-3 2,-4l9 -12 -24 -36 -14 4c-2,1 -4,1 -5,0 -1,0 -2,-1 -3,-3l-11 -15c-1,-1 -1,-3 0,-3 1,-1 2,-2 3,-2l108 -26c2,-1 4,-1 5,0 2,0 3,1 4,3l9 13c1,2 2,4 2,5 0,1 -1,3 -2,4l-66 91zm34 -88l-39 11 15 21 24 -32z"/>
  <path class="fil7" d="M1392 540c0,1 0,2 0,3 0,1 -1,2 -3,3l-98 38c-2,0 -3,0 -4,0 -1,0 -2,-1 -3,-3l-6 -15c0,-2 0,-4 0,-5 1,-1 2,-3 3,-5l43 -56 -57 22c-2,1 -3,1 -4,0 -1,0 -2,-1 -2,-3l-7 -16c0,-2 0,-3 0,-4 0,-1 1,-2 3,-3l98 -37c2,-1 3,-1 4,-1 1,1 2,2 3,4l6 15c1,2 1,4 0,5 -1,1 -2,3 -3,5l-43 56 57 -22c2,-1 3,-1 4,0 1,0 2,1 3,3l6 16z"/>
  <path class="fil7" d="M1371 701c1,2 0,3 0,4 -1,1 -2,1 -4,1l-25 4c-6,0 -12,0 -17,-3 -5,-2 -9,-5 -13,-10 -3,-4 -6,-9 -8,-14 -3,-5 -4,-10 -5,-15 0,-5 0,-10 0,-16 1,-5 2,-11 5,-16 2,-5 5,-9 10,-13 4,-3 10,-6 16,-7l43 -6c7,-1 13,0 18,2 6,2 10,6 14,10 4,4 7,9 9,14 2,5 4,10 5,16 0,5 0,11 0,16 -1,6 -3,11 -5,16 -3,5 -6,9 -10,13 -4,3 -9,5 -15,6 -2,0 -3,0 -4,0 0,-1 -1,-2 -1,-4l-2 -17c-1,-2 0,-4 1,-4 1,-1 3,-1 4,-2 2,-1 4,-4 6,-7 2,-4 2,-8 1,-14 0,-6 -3,-10 -7,-13 -4,-3 -8,-4 -14,-4l-35 5c-5,1 -9,4 -12,8 -3,3 -3,8 -3,14 1,6 3,10 7,13 3,3 8,5 15,4l-3 -16c0,-2 0,-3 1,-4 1,-1 2,-2 4,-2l13 -2c2,0 3,0 4,1 1,0 2,2 2,4l5 38z"/>
  <path class="fil7" d="M179 986c0,0 -1,1 -1,1 -1,0 -1,1 -2,1 0,0 -1,0 -1,1 -1,0 -1,0 -2,1 -1,0 -2,0 -3,-1 -1,0 -2,-1 -3,-2 -1,-1 -3,-3 -6,-6 -2,-2 -5,-5 -8,-8 -3,-3 -6,-6 -8,-10 -3,-3 -4,-6 -5,-8 -1,-2 -2,-4 -1,-7 0,-2 0,-4 2,-4 2,-1 5,-2 8,-2 3,1 6,1 10,2 3,0 6,1 8,2 3,1 4,1 5,1 2,2 4,3 5,4 2,2 4,3 6,4 1,2 3,3 4,5 2,2 3,4 4,6 -1,1 -2,2 -2,4 -1,1 -1,3 -2,4 -1,2 -1,3 -2,5 -1,1 -2,3 -3,4 0,0 -1,0 -1,1l-1 1 -1 1zm-50 -15l0 0c0,-1 -1,-2 -1,-2 -1,-1 -2,-2 -2,-3 -1,0 -1,-1 -2,-2 -1,-1 -1,-2 -2,-2 -1,-2 -1,-3 -2,-4 -1,-2 -2,-3 -3,-4 -1,-1 -1,-2 -2,-4 -1,-1 -2,-1 -2,-2 -1,-2 -1,-4 -2,-5 0,-2 1,-4 2,-6 1,0 2,0 3,-1 0,0 1,0 2,-1 1,0 2,0 3,-1 1,2 3,4 5,8 2,3 5,7 7,10 2,4 5,7 7,11 2,3 3,5 3,6 3,4 5,9 8,13 2,2 3,5 5,7 1,2 3,4 4,6 0,0 0,1 0,1 0,1 0,2 0,2 1,1 1,1 1,2 1,0 1,1 1,1l-2 5c-1,-1 -1,-2 -2,-3 0,0 -1,-1 -1,-1 0,0 -1,0 -1,1 0,0 0,0 0,0l0 0c1,1 1,2 2,2 -1,1 -1,1 -1,1 -1,0 -2,-1 -2,-1 -1,0 -1,0 -2,-1 0,0 -1,0 -1,0 -1,-2 -2,-4 -4,-6 -2,-2 -3,-4 -5,-7 -2,-2 -3,-4 -5,-6l-2 -1c0,0 -1,0 -1,0 -1,0 -2,0 -2,0 -1,1 -2,1 -3,1 -1,0 -2,0 -2,1 -1,0 -2,0 -4,0 -1,1 -2,1 -3,1 -1,0 -2,1 -3,1 -1,0 -1,0 -2,1 -1,0 -2,0 -2,0 -1,0 -1,0 -2,-1 -1,0 -2,-1 -3,-2 -1,-1 -1,-2 -2,-2 -1,-1 -1,-2 -1,-2 -1,-1 -1,-2 -1,-3 1,-1 1,-2 0,-2 1,0 2,-1 3,-1 1,0 3,0 4,-1l7 -1c1,0 2,0 2,0 1,0 2,-1 2,-1 1,0 1,0 2,0 1,-1 2,-1 3,-1l1 -1zm29 -7c1,0 1,2 3,3 1,2 3,3 4,4 2,2 4,3 5,4 2,1 3,1 4,1 1,-1 2,-2 2,-3 1,-2 1,-3 0,-5 0,0 0,-1 -1,-1 -1,-1 -2,-2 -3,-2 -1,-1 -2,-2 -3,-2 -1,-1 -2,-1 -2,-2 -1,0 -2,0 -3,-1 -1,0 -1,0 -2,0 -1,-1 -2,-1 -2,-2 -1,0 -1,0 -1,0 0,0 0,1 -1,3 0,1 0,2 0,3z"/>
  <path class="fil7" d="M244 1076l0 0 -6 -10c-1,-1 -2,-3 -2,-4 -1,-1 -2,-2 -2,-2 0,0 0,-1 -1,-1 0,0 0,0 -1,-1 0,0 -1,-1 -1,-1 -1,-1 -1,-2 -1,-3 0,-1 0,-1 0,-1 0,0 1,0 1,-1l0 0c1,0 1,0 1,0 1,0 1,-1 1,-1l1 1 1 -1c0,-1 1,-1 2,-2l0 0c1,0 1,0 3,1 1,1 2,2 3,4 1,2 3,3 4,5 1,2 2,3 3,4 1,1 2,2 2,2 1,2 2,4 3,6 1,2 2,4 2,7 1,2 1,5 1,7 -1,2 -2,4 -4,5 0,1 -1,1 -2,1 -1,0 -2,0 -3,0 -1,1 -2,1 -3,1 -1,0 -2,0 -3,1 0,0 -1,0 -2,0 -1,0 -2,0 -2,0 -2,0 -3,0 -4,1 0,0 0,0 0,1 0,0 0,0 -1,1 0,0 0,1 -1,1 0,1 -1,1 -2,1 0,0 0,0 -1,0 -1,0 -2,1 -2,2 -1,-1 -2,-2 -3,-2 -1,-1 -2,-2 -3,-2 -2,-1 -3,-1 -4,-2 -1,0 -2,-1 -2,-1 -2,0 -3,0 -4,0 -2,0 -4,0 -5,0 -2,0 -3,0 -5,1 -1,0 -2,0 -3,1 -1,0 -2,0 -2,0 -1,0 -1,0 -2,0 0,0 -1,1 -1,1 0,0 -1,0 -1,0 0,0 -1,0 -1,0 0,0 0,0 0,0l0 0c1,0 1,0 1,0l0 0 2 1c2,1 4,2 5,3l5 3c2,1 3,1 4,2 2,0 3,0 3,0 1,0 2,1 2,1 1,0 1,1 1,1 0,0 0,1 0,1 0,0 0,1 0,1 0,0 1,0 2,1 1,0 2,1 3,2 1,1 2,2 3,2 0,1 0,2 0,3 1,1 1,1 2,2 1,1 2,1 3,2 0,1 -1,1 -2,1 -1,0 -1,0 -1,0 -1,1 -2,1 -2,2 -1,-1 -2,-2 -4,-3 -1,-1 -3,-2 -5,-3 -1,-1 -3,-1 -4,-2 -2,-1 -3,-1 -4,-2 0,0 0,0 -1,0 0,0 0,0 0,0l-1 0c-1,0 -3,0 -5,0 0,-1 -1,-2 -3,-3 -2,-1 -4,-2 -6,-3 -2,-1 -5,-3 -7,-4 -3,-1 -4,-3 -6,-4 0,0 0,0 0,-1l-1 0c0,0 0,0 0,-1l-1 0c0,0 0,0 -1,-1 0,0 0,0 -1,-1 0,-1 -1,-2 -2,-3 0,0 0,-1 0,-1 1,0 1,0 1,0 0,-1 0,-1 1,-1 0,-1 0,-1 1,-1 0,0 1,-1 3,-2 1,0 3,-1 6,-2 2,0 4,-1 7,-2 2,-1 4,-1 6,-2l0 0c0,0 -1,-1 -2,-3 0,0 0,0 -1,0 0,-1 0,-1 0,-2 0,0 0,0 -1,-1 0,0 0,-1 0,-1 0,0 1,0 1,-1 0,0 0,0 1,-1 0,0 1,-1 2,-2 1,-1 2,-1 5,0 2,1 4,2 7,3 1,1 2,1 3,2 1,0 2,1 3,2l3 1c0,0 0,0 0,1 1,0 1,0 2,0 1,0 2,0 3,0 2,-1 4,-1 6,-1 2,0 4,-1 6,-1 2,0 3,-1 5,-1 2,0 3,0 5,-1zm11 37c1,0 2,-1 4,-2 3,-1 5,-2 8,-3 3,-1 6,-1 8,-2 3,0 5,1 6,2 1,1 1,2 1,3 0,1 0,2 -1,2 0,1 -1,1 -1,2l-1 1 -4 3c-1,1 -3,2 -5,3 -1,1 -3,3 -5,4l-11 8 -10 7c-1,1 -1,1 -2,1 0,0 -1,0 -2,0 -1,0 -2,1 -2,1l-12 4c-2,1 -4,2 -6,3 -2,1 -4,2 -6,2l-3 -6c1,0 1,-1 1,-1 0,0 0,-1 0,-1 1,0 1,0 1,0 0,-1 0,-1 0,-2 0,0 -1,-1 -1,-3 1,-2 2,-3 3,-4 0,0 1,-1 1,-1 1,0 1,0 1,-1 3,-2 6,-3 8,-5 3,-1 6,-2 9,-3l1 -1 2 -2c1,-1 2,-2 3,-2 1,-1 2,-2 2,-2 1,0 1,0 2,0 0,0 0,0 1,0 0,0 0,-1 0,-1 0,0 1,0 1,-1 0,0 1,0 2,0 0,0 1,0 2,0 1,0 2,-1 3,-1 0,0 1,-1 2,-2z"/>
  <path class="fil7" d="M409 1333l-2 0c0,0 -1,0 -1,0 0,0 -1,0 -2,-1 -1,0 -2,0 -3,0 -1,-1 -1,-1 -2,-1 -1,-1 -3,-1 -4,-2 -2,0 -3,-1 -4,-1 -1,0 -1,0 -2,0 0,0 -1,0 -2,1 -1,0 -1,0 -1,-1 -1,0 -1,0 -2,0l-2 -1c0,-1 -1,-1 -1,-1 0,0 -1,0 -1,0 -1,-1 -2,-2 -2,-2 0,-1 -1,-2 -1,-3 0,-1 0,-1 0,-2 0,-1 0,-1 1,-2 0,0 1,-2 3,-4 2,-2 3,-4 5,-6 2,-3 4,-5 6,-7 1,-3 3,-4 4,-5 0,0 1,0 1,0l2 -1c1,0 2,0 2,0 1,0 2,0 3,0l7 2 5 2c1,0 1,0 2,0 1,1 1,1 2,1 0,1 0,1 1,2 0,0 1,1 1,1 2,0 3,1 5,2 2,1 3,1 5,2 2,1 3,1 5,2 1,0 3,1 3,1l1 9c-2,1 -3,2 -5,3 -1,1 -2,1 -4,2 -1,1 -2,2 -3,2 -1,1 -1,1 -2,2l0 0 0 0 0 1 7 2c0,1 0,1 -1,2 0,0 0,1 0,1l0 2c0,1 0,2 -1,2 -1,1 -2,1 -4,2 -2,-1 -4,-1 -6,-2 -1,0 -3,-1 -5,-1 -2,0 -5,-1 -8,-3zm37 -35c0,1 0,2 0,3 0,1 -1,1 -1,2 -1,0 -1,1 -2,1 0,0 0,1 -1,1l-2 -2c0,0 0,-1 0,-2 -1,-1 -1,-1 -2,-1l0 1c0,0 0,1 0,2 0,1 1,2 1,4 -1,-1 -2,-2 -3,-2 -1,-1 -1,-1 -2,-1 -1,-1 -1,-1 -2,-1 0,-1 -1,-1 -1,-1 -1,-1 -2,-1 -3,-2 -1,-1 -1,-2 -2,-3 0,-2 0,-3 0,-4 1,-1 2,-2 3,-4 2,-1 3,-3 5,-5 2,-2 4,-5 6,-7 2,-2 4,-4 6,-7 2,-2 4,-4 6,-6 3,-2 5,-4 6,-6 2,-1 4,-3 5,-4 1,-1 2,-2 3,-2 1,-1 2,-1 3,-1 2,1 2,1 3,2 1,0 2,1 2,1 0,1 0,1 0,1 0,0 0,0 1,0 0,0 1,0 3,0 0,1 0,2 -1,3 0,0 0,1 0,2 -1,1 -1,2 -1,3 0,1 -1,2 -1,2 0,1 -1,2 -2,3 -1,2 -3,3 -4,5 -2,2 -3,4 -5,6 -1,1 -3,3 -4,4 0,0 0,0 1,0l0 0 0 0c1,0 3,1 4,1 2,0 3,1 4,1 3,1 6,1 7,2 1,1 2,2 2,4 0,1 0,2 -1,3 -1,2 -2,3 -4,3 -1,0 -2,-1 -4,-1 -2,0 -3,0 -5,0 -3,-1 -5,-1 -6,-2 -1,0 -1,-1 -1,-1 -1,0 -1,-1 -1,-1l0 -2 -1 0 -1 -1 -1 1 -2 2c0,1 -1,2 -1,3 -1,1 -1,1 -1,1l-2 2 -1 0 0 0zm-31 -46c3,2 5,4 7,6 2,2 3,4 5,6 1,3 2,5 2,7 1,2 1,3 0,5 -1,0 -2,1 -4,2 -2,0 -4,1 -7,2 -3,0 -5,1 -8,1 -3,0 -4,1 -6,0 -1,0 -3,0 -5,-1 -2,0 -5,0 -8,-1 -2,-1 -5,-2 -8,-3 -2,0 -5,-1 -7,-2 -1,-1 -2,-3 -3,-4 0,-2 0,-3 1,-4 0,-1 0,-2 0,-2 1,-1 1,-1 2,-1 0,-1 0,-1 1,-1 0,-1 0,-1 1,-1 1,-1 3,-2 5,-3 2,-1 3,-1 5,-2 2,-1 3,-1 4,-1l2 -1c1,0 3,0 5,-1 2,0 4,-1 6,-1 2,0 3,-1 5,-1 2,0 4,0 5,1zm-7 -3c0,0 -1,0 -2,-1 -1,0 -1,0 -2,-1 0,0 -1,0 -1,0 0,-1 -1,-1 -1,-1 0,0 -1,-1 -2,-1 -2,0 -3,0 -4,-1 -2,0 -3,0 -4,0 -2,-1 -3,-1 -4,-1 -1,-1 -2,-2 -2,-3 0,-1 0,-2 1,-3 0,-1 1,-2 2,-3 0,-1 1,-2 1,-2 0,0 1,-1 3,-1 1,0 2,0 4,0 2,1 3,1 5,2 1,0 2,0 3,1l0 0 2 -1c0,0 1,0 2,0 0,0 1,1 1,1l2 0c2,1 3,1 4,1 1,1 2,1 2,1 1,-1 1,-1 2,-1 0,0 1,-1 1,-1 0,-1 1,-2 1,-2 1,-1 2,-2 4,-3 1,-1 2,-2 3,-3 2,-2 3,-3 5,-4 1,-1 3,-2 5,-3l1 2 1 1c0,0 1,0 1,1 1,0 2,0 3,0 0,0 0,1 0,1 0,1 -1,2 -1,2 0,2 0,3 0,4 -1,1 -1,1 -2,2 -1,1 -1,1 -2,1 0,1 -1,1 -1,1 0,1 -1,1 -1,2 -1,1 -2,2 -3,2 0,0 -1,1 -2,1l-2 0c-1,1 -1,1 -2,1l-1 1 -1 0 3 0c1,1 2,1 2,1 1,0 2,1 3,1 1,1 2,1 4,2 1,0 2,1 4,1 1,1 3,1 4,1 2,1 3,1 4,1 0,1 -1,2 0,2 0,1 0,2 0,2l0 2c0,1 0,1 0,2 0,1 -1,1 -3,2l-3 0c0,0 -2,0 -4,-1 -2,-1 -5,-1 -8,-2 -4,-1 -7,-2 -10,-3 -4,-1 -6,-2 -8,-2l-3 -1c0,0 -1,0 -2,0 0,0 -1,0 -2,0zm-10 68c0,0 0,1 1,1 0,1 1,1 2,2 1,0 2,1 3,1 2,0 3,1 3,1l9 1c0,0 0,0 1,-1 0,0 1,0 1,-1 1,0 1,-1 1,-1 1,-1 1,-1 2,-1 1,-1 1,-2 2,-2l3 -3c-1,-1 -2,-1 -3,-1 -1,-1 -2,-1 -4,-1 -1,-1 -3,-2 -5,-2 -1,-1 -3,-1 -4,-2 -1,0 -1,0 -3,0 -1,-1 -2,0 -2,0 -1,1 -2,2 -3,3 -1,1 -1,2 -2,2 -1,2 -2,3 -2,4zm2 -47c0,1 1,1 3,1 1,0 3,0 4,-1 2,0 3,0 4,-1 1,-1 1,-1 1,-2 -1,-1 -1,-2 -2,-3 -1,0 -3,-1 -4,-1 -1,1 -2,1 -4,1 -2,1 -3,1 -5,1 -2,0 -4,1 -5,1 -1,0 -2,0 -2,1l1 0c0,0 1,0 1,1 1,0 1,0 2,0 1,1 2,1 3,1 1,1 2,1 3,1zm41 14l0 -2c0,0 -1,0 -2,1 0,0 -1,1 -1,2 -1,0 -1,1 -2,1 0,0 -1,1 -1,1 0,1 0,2 0,3 1,0 1,0 2,0 0,0 0,-1 0,-1 0,0 0,0 0,-1 0,0 1,0 1,-1 0,0 0,-1 1,-1l0 0 1 -1c1,0 1,-1 1,-1zm36 -19l1 -5 2 1 0 1c-1,0 -1,1 -1,1 -1,1 -1,1 -2,2zm-46 27c1,1 2,0 3,0 -1,-1 -2,-1 -3,0z"/>
  <path class="fil7" d="M566 1334c0,1 -1,1 -1,2 -1,0 -1,1 -1,1 -1,1 -2,2 -3,2l-1 1 0 1c0,0 0,1 -2,2 0,1 -1,1 -2,2 -1,1 -1,2 -2,3 -1,1 -2,2 -3,3 0,1 -1,2 -3,3 0,1 -1,1 -2,2 0,0 -1,0 -2,0 0,0 -1,0 -1,0 -1,0 -1,0 -2,0 0,0 0,-1 0,-2 -1,0 -1,-1 -1,-2 -1,-1 -1,-2 -1,-3 0,-1 0,-1 0,-2 0,-2 1,-3 3,-6 2,-2 5,-5 7,-7 2,-3 4,-6 7,-8 2,-2 3,-4 4,-5 0,0 0,-1 1,-2 1,0 1,-1 1,-2 0,-1 0,-2 -1,-3 -1,-1 -2,-2 -4,-3l0 3c-2,0 -3,1 -4,3 -1,1 -3,3 -4,4 -1,2 -2,4 -4,5 -1,2 -3,3 -4,4l-2 2c-2,2 -3,4 -5,6 -2,2 -4,3 -6,5 -3,2 -5,3 -6,4 0,-1 -1,-2 -1,-2 -1,-1 -1,-2 -2,-3 0,-1 0,-2 0,-3 0,0 0,-2 1,-3 1,0 1,-1 2,-2 1,-1 2,-2 3,-3 1,-1 2,-2 3,-3 1,-1 2,-2 3,-4 0,0 1,0 2,-1 1,-1 2,-2 3,-3 0,-1 1,-2 2,-3 0,0 1,-1 1,-2 1,-1 1,-1 1,-2 1,-1 1,-1 1,-1 0,-2 0,-3 -1,-3 -1,-1 -3,-2 -4,-3 -1,-1 -3,-2 -4,-3 -2,-1 -3,-2 -4,-4 0,-1 0,-2 0,-3 0,-1 1,-1 1,-1 0,-1 1,-2 2,-3 1,-1 2,-2 3,-2 1,1 2,1 3,2l2 1 2 0c1,0 2,1 3,1 1,2 2,2 3,3 0,1 1,1 1,1 1,0 1,1 1,1 0,0 1,-1 1,-1 0,0 0,0 0,0l0 -1 0 0c0,-1 0,-1 1,-1 1,-1 1,-1 2,-1 1,0 1,0 2,0 1,0 1,1 1,1 1,0 2,0 3,1l1 2 2 0c1,0 2,0 2,1 1,0 2,1 3,2 1,0 3,1 4,2 1,1 3,1 4,2 2,1 3,3 5,4l0 10c-2,0 -3,1 -4,2 -1,2 -3,3 -4,5l5 0c1,0 3,0 4,0l1 0 1 0 0 -1c1,0 1,-1 2,-3 2,-2 3,-5 5,-8 1,-3 3,-6 5,-8 1,-3 3,-5 4,-7 1,-1 2,-1 3,-1 1,0 2,0 3,0 1,1 2,1 3,1 1,1 2,1 3,1 0,1 -1,3 -3,6 -1,2 -3,5 -4,8 -2,4 -3,6 -4,9 -2,3 -2,5 -2,5 0,1 -1,2 -2,3 0,0 0,0 0,0 0,0 0,0 0,0 -1,2 -3,4 -4,8 -2,4 -4,8 -6,13 -2,4 -4,9 -6,13 -2,5 -4,8 -5,11 -1,-2 -3,-3 -5,-4 -2,-1 -3,-2 -3,-2 -1,-1 -2,-3 -1,-6 0,-2 1,-5 2,-8 1,-2 3,-5 4,-7 2,-3 2,-4 3,-5 0,-1 1,-1 1,-2 0,0 0,0 -1,-1 0,0 0,0 0,-1l1 0 0 -1c0,-1 1,-1 2,-2l-1 0c0,0 0,0 -1,0 -1,0 -2,0 -4,0 -1,0 -3,0 -5,0 -1,-2 -1,-3 -1,-4zm55 -26c0,1 1,1 2,2 0,0 0,0 1,0 0,0 0,0 0,0l2 1c0,0 1,1 1,2 -1,1 -1,3 -1,4 0,1 0,2 -1,3 0,1 0,2 0,2 -1,2 -2,4 -3,6 -1,2 -2,4 -3,6 -1,2 -2,3 -3,5 -1,1 -2,2 -2,3 -1,3 -2,5 -3,8 -1,3 -3,6 -4,9 -1,3 -2,6 -3,9 -2,3 -3,6 -3,9l-2 0c0,0 -1,-1 -1,-1 0,0 0,-1 0,-1 0,-1 -1,-1 -1,-1 -1,0 -1,0 -1,0 -1,0 -1,0 -1,0 0,0 0,0 0,1 0,0 0,0 1,1 0,1 1,2 1,3 -1,0 -2,-1 -3,-1 -1,0 -2,-1 -3,-1 -1,0 -1,-1 -2,-1 -1,-1 -1,-1 -2,-2 -2,-2 -2,-4 -1,-6 1,-2 2,-5 3,-8 2,-3 3,-6 4,-9 2,-3 3,-5 4,-8 1,-3 2,-5 2,-7 1,0 1,0 1,-1 1,0 1,0 1,0 1,-1 1,-1 1,-1 1,-2 2,-4 3,-6 2,-3 3,-5 4,-8 1,-2 3,-4 4,-6 1,-2 2,-4 3,-4l1 -2c1,0 2,-1 4,0z"/>
  <path class="fil7" d="M849 1329c-1,0 -1,0 -3,1 -1,0 -2,0 -4,1 -2,1 -4,1 -5,2 -2,0 -3,1 -4,1 -1,0 -3,-1 -5,-2 -1,-1 -2,-2 -2,-4 0,0 0,-1 0,-1 0,-1 0,-1 1,-2 0,0 0,-1 0,-1 2,-1 4,-2 6,-3 2,0 3,-1 5,-2 4,-1 7,-2 9,-3l0 0 0 -1c0,0 0,-1 1,-2 0,0 0,-1 0,-2 0,-2 0,-3 1,-5 0,-2 0,-4 0,-6 0,-2 1,-3 1,-4 1,0 1,0 2,0 1,0 1,-1 2,-1l3 0c0,0 0,0 1,0 0,0 0,0 1,0 1,0 2,0 2,1 -1,1 -1,1 -1,2 0,-1 0,-1 1,-1 0,0 1,0 1,0 2,0 3,0 3,1 1,0 1,1 1,2l0 16c0,1 0,1 0,1 0,0 0,1 1,1 0,1 0,1 0,1 0,0 0,1 0,1l0 1c-1,1 -1,3 -1,5 0,2 0,4 0,7 0,2 0,4 0,7 0,2 0,3 -1,4 0,1 0,3 0,4 0,2 0,3 0,5 0,2 0,3 1,5 0,2 0,3 0,4 0,1 0,2 -1,2 -1,1 -2,1 -3,2 -1,0 -2,0 -3,1 -1,0 -2,1 -2,1 -1,0 -1,-1 -2,-1 0,-1 -1,-1 -2,-1 0,-1 -1,-1 -1,-2 0,0 -1,-1 -1,-1 -1,-2 -1,-4 -1,-5 -1,-2 -1,-4 -1,-5l0 -9 0 0c0,0 0,0 0,0 0,0 0,0 -1,-1 0,-3 0,-7 1,-12 -1,0 -1,0 -1,-1 0,0 0,0 0,-1 0,0 0,0 1,0zm13 44c0,1 0,1 1,1 1,1 1,1 2,2 1,1 1,1 2,2 1,0 1,1 1,1 1,3 0,5 -1,7 -1,2 -2,4 -3,5 -2,2 -4,3 -5,4 -2,1 -3,2 -5,3 0,0 0,1 -2,2 -1,1 -3,3 -5,4 -2,2 -4,3 -6,4 -2,2 -4,3 -5,3 -2,0 -3,0 -5,-1 -2,0 -3,-1 -4,-1 0,-1 0,-2 0,-3l0 -2c0,0 0,0 0,0 0,-1 0,-1 -1,-2 0,0 0,-1 0,-1 0,-1 0,-1 0,-2 1,-2 2,-3 3,-5 1,-2 3,-4 4,-6 1,-2 2,-4 3,-6 1,-2 2,-4 3,-5 0,-2 1,-3 2,-3 2,-1 3,-2 5,-2 0,0 1,0 1,0 0,0 1,0 1,0l1 0 0 0c1,0 1,0 2,0 0,0 1,0 1,0l2 0c0,-1 1,-1 1,-1 1,0 2,0 3,1 0,0 1,0 1,1l1 0c0,0 0,0 2,0zm-49 -59c1,0 2,0 3,0 0,1 1,1 1,2 0,0 0,1 0,1l0 1c0,0 0,1 -1,3 0,2 -1,4 -1,6 -1,2 -2,4 -3,6 -1,2 -1,3 -2,5 0,0 0,1 -1,2 0,0 -1,1 -1,2 0,0 0,1 -1,1 0,0 0,1 0,1 0,0 0,1 0,2 0,0 0,1 0,1 0,1 -1,1 -1,2 0,1 -1,3 -2,4 -1,2 -2,3 -3,5 -1,1 -2,3 -3,4 -1,2 -2,3 -3,4l-2 -2 -1 -1c0,0 0,0 0,1 0,0 0,0 -1,0 0,0 0,0 0,0 0,1 -1,1 -1,1l-1 1c0,0 0,0 -1,0 0,0 0,0 -1,0 -1,0 -2,0 -3,0l-1 -4c0,0 1,-2 1,-5 1,-2 2,-6 3,-9 1,-3 2,-7 3,-10 1,-3 2,-6 3,-7 1,0 1,-1 1,-1l1 0 -1 -1c0,0 0,-1 0,-2 1,0 1,-1 2,-3 1,-2 2,-4 3,-6 1,-2 2,-4 3,-6 1,-2 2,-3 3,-3 1,0 2,1 3,2 1,1 2,2 2,3 0,0 0,1 0,2 -1,0 -1,1 -1,1 -1,1 -1,1 -1,2 0,0 0,0 0,0l1 1c0,0 0,0 1,-1l0 -1 1 -2c0,-1 1,-2 2,-2zm19 28l2 2c0,1 1,2 1,3 0,1 0,2 0,3 -1,1 -1,2 -2,2 -2,2 -3,3 -3,3 -3,0 -4,0 -6,0 -2,-1 -3,-2 -5,-4 -1,0 -1,-1 -2,-1 -1,-1 -1,-2 -2,-2 -1,-1 -1,-2 -2,-3 0,-1 -1,-1 -1,-2 0,-1 0,-2 1,-3 0,-1 1,-2 2,-2 1,-1 2,-1 3,-1 2,-1 3,-1 4,-1l5 3c1,0 2,0 3,1 1,1 1,1 2,2zm22 44l1 -2c0,0 -1,0 -2,0 -2,0 -3,1 -4,1 0,0 0,0 -1,1 0,1 -1,1 -2,2l-3 5 1 1 0 0c0,0 0,-1 1,-1 1,-1 2,-1 3,-2 1,-1 2,-2 3,-3 1,-1 2,-2 3,-2z"/>
  <path class="fil7" d="M983 1310l3 -2 3 -2c0,0 2,-1 5,-2 2,-2 6,-4 9,-6 3,-1 6,-3 9,-5 3,-1 4,-2 5,-3 0,1 1,1 2,0 0,0 1,0 1,-1 1,0 2,-1 2,-1 1,0 1,-1 1,-1 1,0 2,0 4,0 1,0 2,1 3,3 0,0 0,0 0,1 0,1 -1,1 -1,2 -1,1 -1,2 -1,2 -1,1 -1,2 -1,2 -2,1 -4,2 -6,3 -1,1 -2,2 -3,3 0,0 -1,0 -1,0 -1,1 -1,1 -2,1 0,1 -1,1 -1,2 -1,0 -1,0 -1,0 -1,1 -2,1 -2,1 -1,1 -2,1 -3,2 -1,1 -2,1 -3,2 -1,1 -2,1 -2,2 -1,0 -4,2 -8,4 -3,2 -7,4 -11,7 -5,3 -9,5 -13,8 -4,2 -7,4 -9,6 0,0 -1,0 -1,0 -1,0 -1,1 -2,1 -1,0 -2,1 -2,1 -1,1 -2,1 -3,1 -2,-1 -4,-3 -5,-4 0,-2 -1,-3 -1,-4 0,0 0,0 0,-1 0,0 0,-1 1,-1 0,-1 0,-1 0,-2 0,0 1,-1 2,-1 0,0 0,-1 1,-1 1,-1 2,-1 3,-1 1,-1 2,-1 2,-2 1,0 2,0 3,-1 1,-1 3,-2 5,-3 1,0 2,-1 3,-1 1,-1 2,-2 3,-2 0,-1 1,-1 1,-1l0 -1c0,-1 -1,-2 -1,-3 0,-1 -1,-3 -1,-4 -1,-2 -1,-3 -2,-5 0,-2 0,-3 -1,-4 0,0 0,-1 0,-1 0,-1 0,-1 0,-2l0 -2c-1,-1 -1,-1 0,-2 0,-1 1,-1 2,-2 1,-1 2,-1 2,-2 1,0 2,-1 2,-1l7 1c0,1 0,2 0,4 0,2 0,4 1,6 0,2 1,3 1,5 0,2 1,3 1,3 0,1 0,2 0,3l0 1zm21 -38l0 1c0,0 0,0 0,0 0,0 0,1 0,1 1,1 1,1 1,2 0,1 0,1 0,1 0,1 -1,1 -1,1 0,1 0,1 0,1 0,0 0,1 1,1 0,1 1,2 1,2 -1,1 -2,2 -2,3 0,1 0,2 -1,3 0,1 0,2 0,4 -1,1 -1,2 -2,3 0,0 -1,1 -2,1 0,0 -1,1 -3,1 -1,1 -2,1 -2,1 -1,0 -2,0 -2,-1 -1,-2 -2,-3 -2,-5 0,-1 0,-3 0,-5l-1 -7c0,-1 0,-2 0,-3 0,-1 0,-2 0,-3 -1,0 -1,0 -2,-1l-1 0c-1,0 -4,1 -6,2 -3,1 -6,1 -8,2l-7 2 -3 1c0,0 -1,0 -2,1 -1,0 -2,1 -3,1 -1,1 -2,1 -3,2 -1,0 -3,0 -4,0 0,0 -1,-1 -1,-1l-2 -1c0,0 -1,-1 -1,-2 -1,0 -1,-1 0,-2 -1,-1 0,-2 0,-3 1,-1 2,-3 3,-4 2,-1 4,-2 7,-3 3,-2 6,-3 9,-4 3,-1 6,-2 8,-3 2,-1 4,-2 4,-2 1,0 3,-1 5,-1 1,-1 3,-1 5,-1 2,0 5,-1 7,-1 2,0 4,0 6,0 2,0 3,1 4,2 1,0 1,1 1,2 0,1 0,1 0,2 0,1 0,2 0,3 0,0 -1,1 -1,2 0,1 0,2 0,3l0 2 0 0zm10 49c0,0 1,1 2,1 1,0 2,1 3,1 1,0 2,1 3,1 0,0 1,1 1,1 1,3 1,5 1,7 -1,3 -1,5 -3,7 -1,2 -2,4 -4,6 -1,2 -3,3 -4,4l-2 3c0,1 -1,2 -2,3 -1,0 -2,2 -3,3 -1,2 -3,4 -5,6 -2,2 -4,3 -5,4 -2,0 -4,1 -5,1 -2,0 -4,-1 -5,-1 0,-1 -1,-2 -1,-3l0 -1c0,0 0,-1 0,-1 -1,0 -1,-1 -1,-1 0,-1 -1,-1 -1,-2 0,0 0,-1 0,-2 0,-1 1,-3 2,-6 1,-2 1,-5 2,-7 1,-2 2,-5 3,-7 1,-3 1,-5 1,-7 0,-1 1,-2 2,-4 2,-1 3,-2 4,-2 1,0 1,-1 2,-1 0,0 0,0 1,0 0,0 0,0 0,0l1 -1c0,0 1,0 1,0 1,0 2,-1 2,-1 1,0 1,0 2,0 0,0 0,-1 1,-1 1,0 2,0 2,0 1,0 2,0 3,1l0 -1c0,0 1,0 2,0zm-3 15l0 -2c0,0 -2,0 -3,1l-4 1c0,1 -1,1 -1,2 -1,2 -1,3 -2,4 -1,2 -1,3 -2,4 0,2 0,3 0,3 0,0 0,0 0,0 1,1 1,1 1,0 0,0 1,0 2,-1 1,-1 2,-3 3,-4 1,-1 3,-3 4,-4 1,-2 2,-3 2,-4z"/>
  <path class="fil7" d="M1142 1244c0,0 1,-1 2,-2 1,-2 3,-3 4,-5 1,-1 2,-3 3,-4 2,-1 2,-2 3,-3l-1 -2c-1,0 -1,-1 -1,-1 -1,-1 -1,-2 -1,-2 -1,-2 -1,-3 -2,-4 0,-2 0,-3 1,-3 0,0 0,-1 1,-1 0,0 0,0 0,-1l2 -1c1,0 1,-2 2,-4l6 0c1,1 2,3 3,5 1,3 2,6 4,8 1,3 2,6 3,8 1,2 1,4 2,5 0,0 1,1 2,1 0,1 1,1 2,2 0,1 1,2 1,3 0,1 0,3 -1,5 -1,2 -3,5 -5,7 -2,2 -4,4 -6,6 -2,2 -3,4 -4,5 -2,2 -3,3 -3,5 -1,1 -2,2 -3,3 -1,1 -1,2 -2,2 -1,1 -1,2 -2,3 -1,0 -2,1 -3,3l-6 -2c0,-1 0,-2 -1,-4 -1,-1 -2,-3 -3,-5 0,-2 -1,-3 -2,-5 -1,-2 -2,-3 -2,-4 -1,-3 -3,-6 -4,-10 -1,-2 -2,-4 -3,-5 0,-2 -1,-4 -1,-6 0,0 1,-1 1,-1 0,-1 1,-1 1,-2 0,0 1,0 1,-1l1 0c0,0 0,-1 1,-1 0,0 1,-1 1,-1 1,-1 1,-1 2,-1 0,0 0,0 0,0 1,0 2,1 2,1 1,0 1,0 2,-1l1 6c0,0 0,1 0,1 1,1 1,1 1,2 1,0 1,1 1,1zm7 -42c1,0 2,1 3,1 0,1 1,1 1,2 0,0 0,1 0,1 1,1 1,1 1,2l-2 1c-1,0 -2,0 -3,0 -1,0 -1,0 -1,1l1 0c0,0 1,0 2,1 1,0 2,0 3,1 -1,0 -2,1 -3,1 0,1 -1,1 -2,2 0,0 -1,1 -1,1 -1,1 -1,1 -1,1 -1,1 -2,1 -3,2 -2,0 -3,0 -4,0 -1,0 -2,0 -3,-1 -1,-2 -3,-5 -6,-10 -1,-2 -2,-5 -3,-7 -1,-3 -2,-5 -3,-8 -1,-2 -2,-5 -3,-7 -1,-3 -2,-5 -3,-7 -1,-4 -2,-7 -2,-9 -1,-1 0,-2 0,-3 1,-1 2,-2 2,-2 1,-1 2,-1 3,-1 0,0 1,0 1,0 0,0 0,0 0,-1 0,0 0,-1 1,-3 1,1 1,1 2,2 1,0 2,1 2,1 1,1 2,2 3,2 0,1 1,1 1,2 1,0 1,1 2,2 1,2 1,3 2,5 1,1 2,3 3,5 0,1 1,3 2,4l0 0 0 0 0 0 0 -1c1,-1 2,-2 2,-3 1,-1 2,-2 3,-3 2,-3 3,-5 4,-6 2,-1 3,-1 4,0 2,0 3,1 4,2 1,1 1,3 0,5 0,1 -1,2 -2,3 -1,2 -1,3 -2,4 -2,3 -3,5 -4,6 0,0 -1,0 -1,0 -1,0 -2,0 -2,0l-1 0 -1 0 -1 1 0 2 2 2c1,1 1,2 2,3 0,0 0,1 1,1l0 2 0 1 0 0zm-52 15c3,-2 5,-3 8,-4 3,-1 5,-2 8,-2 2,-1 4,-1 6,0 2,0 4,1 5,2 0,1 1,2 0,4 0,3 0,5 -1,8 0,2 -1,5 -1,7 -1,3 -2,5 -2,6 -1,1 -2,2 -3,4 -2,2 -3,4 -5,7 -1,2 -3,4 -5,6 -2,2 -4,4 -5,6 -2,1 -3,1 -5,1 -2,-1 -3,-1 -4,-2 0,0 -1,-1 -1,-1 0,-1 -1,-1 -1,-2 0,0 0,-1 0,-1 0,-1 0,-1 -1,-1 0,-2 0,-4 0,-6 0,-2 0,-4 0,-6l0 -4 1 -2c0,-1 0,-3 1,-5 0,-2 0,-4 1,-6 0,-2 1,-3 1,-5 1,-2 2,-3 3,-4zm-5 5c-1,1 -1,2 -2,2 0,0 -1,1 -1,1 -1,1 -1,1 -2,1 0,0 0,1 0,1 -1,0 -1,1 -2,2 -1,1 -1,2 -2,3 -1,1 -2,3 -3,4 0,1 -1,2 -2,2 -1,1 -2,1 -3,1 -1,0 -2,-1 -3,-2 -1,-1 -1,-1 -2,-2 0,-1 -1,-2 -1,-2 0,-1 0,-2 0,-3 1,-1 1,-3 2,-4 1,-2 2,-3 3,-4 1,-1 2,-2 2,-2l0 -1 1 -1c0,-1 0,-1 0,-2 1,-1 1,-1 2,-1l1 -2c1,-2 2,-2 2,-3 1,-1 1,-1 1,-2 0,-1 0,-1 0,-2 0,0 0,-1 -1,-1 0,-1 0,-1 -1,-2 0,-2 -1,-3 -1,-4 -1,-2 -1,-3 -2,-5 0,-2 -1,-4 -2,-5 0,-2 0,-4 0,-6l2 -1 1 0c0,0 1,-1 1,-1 1,-1 1,-2 2,-3 0,1 0,1 1,1 1,1 1,1 2,1 1,1 2,2 2,2 1,1 2,2 2,3 0,0 1,1 1,2 0,0 0,1 0,1 0,1 0,1 1,2 0,1 1,2 1,3 0,1 0,2 0,2l0 3c-1,0 0,1 0,2l0 1 -1 1 2 -2c0,-1 1,-2 2,-3 0,-1 1,-1 1,-2 1,0 2,-1 4,-2 1,-1 2,-2 2,-4 2,-1 2,-2 3,-3 1,-2 2,-3 2,-3 1,0 2,1 2,1 1,0 1,0 2,0l2 1c1,0 1,0 1,1 1,0 1,1 1,3l-1 3c0,0 -1,1 -2,3 -2,2 -4,4 -6,7 -2,3 -4,5 -6,8 -2,3 -4,5 -5,7l-1 2c-1,0 -1,1 -1,1 0,1 -1,2 -1,2zm60 41l0 -1 1 0 1 -2 2 -3 6 -6 0 -1 0 -1c-1,-1 -2,-3 -2,-4 0,-1 -1,-2 -1,-3 0,-1 0,-1 0,-2 0,0 0,0 0,-1l-2 2 -3 4c-2,2 -3,3 -4,5 -1,1 -2,2 -2,3l0 0c0,0 0,0 0,2 0,1 1,2 1,4l1 2c0,0 1,1 1,1 0,0 1,1 1,1zm-44 -25c0,-1 1,-1 1,-3 1,-1 1,-3 2,-4 0,-2 0,-3 0,-4 0,-1 -1,-2 -2,-1 -1,-1 -2,-1 -3,0 -1,1 -2,2 -2,4 0,0 0,2 -1,3 0,2 -1,4 -1,5 -1,2 -1,4 -1,5 -1,2 -1,2 0,2l0 -1c1,0 1,0 1,-1 1,0 1,0 1,-1 1,-1 2,-1 3,-2 0,-1 1,-2 2,-2zm26 -37l-2 -1c0,1 0,2 1,2 0,1 0,2 0,3 1,0 1,1 1,1 1,1 1,2 1,2 1,1 2,1 2,1 1,0 1,-1 1,-1 0,0 0,-1 -1,-1 0,0 0,0 0,-1 -1,0 -1,0 -1,0 0,-1 -1,-1 -1,-2l0 0 0 -1c0,-1 0,-2 -1,-2zm-1 -36l-4 -3 1 -1 1 0c0,1 1,1 1,1 0,1 1,2 1,3zm5 48c1,0 1,-1 1,-3 -1,1 -2,2 -1,3z"/>
  <path class="fil7" d="M1233 1076c0,-1 -1,-2 -3,-4 -1,-2 -3,-4 -4,-7 -2,-2 -4,-5 -5,-7 -1,-2 -1,-5 1,-6 0,-1 1,-2 2,-2 1,0 2,0 2,0 1,1 2,1 2,1l1 1 5 3c1,1 2,2 4,3 2,2 3,3 5,4l11 9 10 8c0,0 0,1 1,1 0,1 0,1 0,2 1,1 1,2 1,2l8 10c2,2 3,4 4,5 2,2 3,4 4,5l-5 5c-1,0 -1,-1 -2,-1 0,0 0,0 0,0 0,0 -1,0 -1,0 0,0 -1,0 -1,0 -1,1 -2,1 -3,2 -2,0 -3,-1 -5,-2 0,0 0,0 -1,-1 0,0 -1,0 -1,0 -3,-3 -5,-5 -7,-7 -2,-2 -4,-5 -6,-7l-1 -1 -2 -2c-1,0 -2,-1 -3,-2 -1,0 -2,-1 -3,-2 0,0 0,0 0,-1 0,0 0,0 0,-1 0,0 -1,0 -1,0 0,0 -1,0 -1,-1 0,0 0,0 -1,-1 0,-1 0,-2 -1,-2 0,-1 -1,-2 -1,-3 -1,0 -2,-1 -3,-1zm-29 18c0,-1 1,-1 2,-1 0,0 1,0 1,0 1,0 1,1 1,1l1 0c0,1 1,2 2,3 1,2 1,4 2,6 1,2 2,4 3,6 1,2 1,3 2,4 0,1 0,2 0,3 1,0 1,1 1,1 0,1 0,2 0,2 0,1 0,1 1,1 0,0 0,1 0,1 0,0 0,0 1,1 0,0 1,1 1,2 1,1 1,3 2,5 0,2 0,3 1,5l0 6 1 4 -2 0 -2 0c0,1 0,1 0,1 0,1 0,1 0,1 0,0 0,1 0,1l0 1c0,0 -1,0 -1,1 0,0 0,0 -1,1 0,0 -1,1 -1,2l-4 -2c0,-1 -1,-2 -3,-5 -1,-2 -3,-5 -4,-8 -2,-3 -3,-6 -5,-9 -1,-4 -2,-6 -3,-8l1 -1 0 -1 -1 0c0,0 -1,0 -1,-1 0,0 0,-2 -1,-3 -1,-2 -1,-5 -2,-7 -1,-2 -1,-4 -2,-6 0,-2 0,-4 0,-4 1,-2 2,-2 4,-2 2,1 3,1 3,2 1,0 1,1 2,3 0,0 0,1 0,1 0,1 0,1 0,1l2 -1c-1,0 -1,-1 -1,-3 -1,0 -1,-1 -1,-2 0,-1 0,-1 1,-2zm32 7c2,0 4,1 6,2 1,0 1,1 1,2 1,1 1,2 1,3 0,1 0,2 0,3 0,0 -1,1 -1,1 -1,2 -2,3 -4,4 -1,1 -3,1 -6,1 -1,0 -3,0 -5,0 -1,0 -2,0 -3,0 -1,-1 -2,-1 -2,-1 -1,-1 -2,-2 -2,-3 0,-1 0,-2 1,-3 0,-2 2,-4 3,-5l5 -2c1,-1 2,-1 3,-1 1,-1 2,-1 3,-1z"/>
  <path class="fil7" d="M1312 995c1,-1 1,-2 1,-5 1,-3 1,-6 1,-8l1 -12c0,0 0,0 0,0l-1 -1c0,-1 0,-1 0,-2 0,0 0,-1 0,-2 0,-1 0,-2 0,-4 0,-1 0,-3 0,-5 0,-1 1,-3 1,-5 0,-1 0,-2 0,-3 0,0 0,-1 0,-1 0,0 -1,0 -1,0 -2,-1 -4,-3 -7,-5 -2,-2 -5,-4 -8,-6 -3,-2 -6,-4 -8,-6 -3,-2 -5,-4 -7,-5 0,0 0,-2 0,-3 0,-1 0,-3 1,-4l0 0c0,0 0,0 0,0 0,0 0,0 0,0 0,0 0,0 1,-1l0 -1c1,-1 2,-1 3,-1 2,1 3,1 5,2 0,0 1,0 2,0 0,0 1,1 2,1l2 1c1,1 3,2 5,3 3,2 5,3 7,4 2,2 4,3 6,4 2,1 3,1 4,2l0 -1c1,0 1,0 1,0l0 0 -1 -1c1,-1 1,-2 1,-3 0,-2 0,-3 0,-4l1 -5c0,-1 1,-3 1,-4 1,0 1,-1 2,-2 0,0 1,-1 2,-2 1,1 2,1 3,2 1,1 1,2 1,2l3 1c0,2 0,4 0,5 0,2 0,4 -1,5 0,2 -1,4 -1,5 -1,2 -1,3 -1,5 -2,-1 -3,-1 -4,-1 0,1 -1,1 0,1 1,1 3,3 5,4 3,2 6,3 8,5 3,1 6,3 9,4 3,2 6,4 8,5 0,1 -1,2 -1,3 0,1 0,2 0,3 0,2 0,3 0,4 0,1 0,2 0,2 0,0 0,0 -1,0 0,0 0,1 -1,1 0,0 -1,0 -1,0 -1,0 -1,0 -2,0 -1,-1 -2,-2 -2,-2 0,0 -1,1 -1,1 0,0 -1,1 -1,1 -2,0 -3,-1 -4,-1 -1,-1 -2,-2 -4,-2l-6 -4c-3,-2 -7,-4 -11,-7l-1 10c0,1 0,3 -1,5 0,1 0,2 0,3l0 1c1,0 1,1 1,2 0,0 0,1 0,1 0,1 0,2 0,3l0 4c0,1 0,2 -1,2l0 1c0,3 1,5 1,7 -1,2 -1,3 -1,4 -1,2 -1,3 -1,4 -1,1 -1,2 -1,2l1 4 1 7c-3,2 -5,2 -8,1 -1,0 -1,-1 -2,-2 0,0 0,0 0,0 -1,-1 -1,-1 -1,-1 -1,-1 -2,-1 -3,-2 -1,-1 -3,-2 -4,-3 -1,0 -3,-1 -4,-2 -1,-2 -2,-3 -3,-4l-1 0c-1,0 -2,-1 -3,-2 -1,0 -1,-1 -2,-3 0,-1 -1,-2 -1,-3 -1,-1 -1,-1 -1,-2 0,0 0,0 0,2 0,1 0,2 -1,3 0,1 0,3 0,4 0,0 -1,1 -2,1 0,1 -1,1 -1,2 -1,0 -2,0 -2,1 -1,0 -2,1 -2,1 -2,0 -3,0 -5,-1 -1,-1 -2,-2 -2,-3 0,-1 0,-1 0,-2 0,-1 0,-1 0,-2 0,0 0,-1 0,-1 0,-1 0,-1 0,-1l0 0c0,0 -1,-1 -1,-3 0,0 0,-1 0,-1 0,-1 1,-2 1,-3 0,0 1,-1 1,-1 0,-1 0,-1 0,-1 0,0 0,-1 -1,-2 1,-3 2,-6 2,-9 0,-3 1,-6 2,-9 1,-6 2,-12 5,-19 1,0 2,0 2,0 0,-1 1,-1 2,-1l0 0 1 -1c1,0 1,0 2,0 1,0 2,-1 3,-1 0,0 1,1 1,2 1,1 2,1 2,2l0 3 -1 2 0 4c0,2 0,4 0,5 -1,2 -1,2 -1,3 0,1 0,2 -1,3 0,1 0,2 -1,4 0,0 0,1 0,1 -1,1 -1,1 -1,2l0 1c0,0 1,1 3,3 1,1 3,3 5,5 2,2 4,4 7,7 2,2 4,4 6,6 0,0 0,0 0,0z"/>
  <path class="fil0 str0" d="M731 212c-5,0 -9,1 -14,1 -4,0 -9,0 -13,0 -5,0 -9,1 -14,1l0 0c-4,0 -8,1 -13,1 -4,1 -8,1 -13,2 -4,0 -8,1 -13,1 -4,1 -8,2 -13,3 -4,0 -8,1 -12,2 -5,1 -9,2 -13,3l0 0c-4,1 -8,2 -13,3 -4,1 -8,2 -12,3 -4,1 -8,3 -12,4l0 0c-4,1 -8,2 -12,4 -4,1 -8,3 -12,4 -4,2 -8,3 -12,5 -4,1 -8,3 -12,4l0 0c-4,2 -8,4 -12,5 -4,2 -7,4 -11,6 -4,2 -8,3 -11,5 -4,2 -8,4 -12,6l0 0c-3,2 -7,4 -11,6 -3,3 -7,5 -10,7 -4,2 -8,4 -11,6 -4,3 -7,5 -11,7 -3,3 -6,5 -10,8 -3,2 -7,4 -10,7l0 0c-3,2 -7,5 -10,7 -3,3 -6,6 -10,8 -3,3 -6,6 -9,8 -3,3 -6,6 -10,9 -3,2 -6,5 -9,8l0 0c-3,3 -6,6 -9,9 -3,3 -5,6 -8,9l0 0c-3,3 -6,6 -9,9l0 0c-3,3 -5,6 -8,9l0 0c-3,4 -6,7 -8,10 -3,3 -5,6 -8,10 -3,3 -5,6 -8,10 -2,3 -5,6 -7,10 -2,3 -5,7 -7,10 -3,3 -5,7 -7,10 -2,4 -5,8 -7,11 -2,4 -4,7 -6,11 -2,4 -4,7 -6,11 -2,4 -4,7 -6,11 -2,4 -4,8 -6,11 -2,4 -3,8 -5,12 -2,4 -4,8 -5,11 -2,4 -3,8 -5,12 -2,4 -3,8 -4,12 -2,4 -3,8 -5,12 -1,4 -2,8 -4,12 -1,4 -2,8 -3,13 -2,4 -3,8 -4,12 -1,4 -2,8 -3,12 -1,5 -2,9 -3,13 0,4 -1,9 -2,13 -1,4 -1,8 -2,13 -1,4 -1,8 -2,13 0,4 -1,8 -1,13 -1,4 -1,9 -2,13 0,4 0,9 0,13 -1,5 -1,9 -1,14 0,4 0,9 0,13 0,5 0,9 0,13 0,5 0,9 1,14 0,4 0,9 0,13 1,5 1,9 2,13 0,5 1,9 1,13 1,5 1,9 2,13 1,5 1,9 2,13 1,4 2,9 2,13 1,4 2,8 3,13 1,4 2,8 3,12 1,4 2,8 4,13 1,4 2,8 3,12 2,4 3,8 4,12 2,4 3,8 5,12 1,4 2,8 4,12 2,4 3,8 5,12 1,4 3,7 5,11 2,4 3,8 5,12 2,4 4,7 6,11 2,4 4,8 6,11 2,4 4,8 6,11 2,4 4,7 6,11 2,4 5,7 7,11 2,3 4,7 7,10 2,4 5,7 7,10 2,4 5,7 7,11 3,3 5,6 8,9 3,4 5,7 8,10 2,3 5,7 8,10l0 0c3,3 5,6 8,9l0 0c3,3 6,6 9,9l0 0c3,3 5,6 8,9 3,3 6,6 9,9l0 0c3,3 6,6 9,8 4,3 7,6 10,9 3,2 6,5 9,8 4,2 7,5 10,8 3,2 7,5 10,7l0 0c3,3 7,5 10,8 4,2 7,4 10,7 4,2 7,4 11,7 3,2 7,4 11,6 3,2 7,5 10,7 4,2 8,4 11,6l0 0c4,2 8,4 12,6 3,2 7,4 11,5 4,2 7,4 11,6 4,1 8,3 12,5l0 0c4,1 8,3 12,5 4,1 8,3 12,4 4,2 8,3 12,4 4,2 8,3 12,4l0 0c4,2 8,3 12,4 4,1 8,2 12,3 5,1 9,2 13,3l0 0c4,1 8,2 13,3 4,1 8,2 12,3 5,0 9,1 13,2 5,0 9,1 13,1 5,1 9,2 13,2 5,0 9,1 13,1l0 0c5,0 9,1 14,1 4,0 9,0 13,0 5,1 9,1 14,1 287,0 520,-233 520,-521 0,-287 -233,-521 -520,-521"/>
  <path class="fil8" d="M722 905l17 0c91,-4 164,-79 164,-172 0,-92 -73,-168 -164,-172l-17 0c-91,4 -164,80 -164,172 0,93 73,168 164,172z"/>
  <path class="fil9" d="M800 648l16 24 -9 6 -16 -24 9 -6z"/>
  <path class="fil9" d="M819 676l15 25 -8 6 -16 -25 9 -6z"/>
  <path class="fil9" d="M813 639l34 53 -8 6 -35 -53 9 -6z"/>
  <path class="fil9" d="M826 630l16 24 -9 6 -16 -24 9 -6z"/>
  <path class="fil9" d="M844 659l16 24 -8 6 -16 -24 8 -6z"/>
  <path class="fil9" d="M635 760l35 52 -9 6 -34 -53 8 -5z"/>
  <path class="fil9" d="M622 768l16 25 -8 5 -16 -24 8 -6z"/>
  <path class="fil9" d="M641 797l16 24 -9 6 -16 -24 9 -6z"/>
  <path class="fil9" d="M609 777l35 53 -9 6 -34 -53 8 -6z"/>
  <path class="fil9" d="M627 701l34 -53 9 6 -35 53 -8 -6z"/>
  <path class="fil9" d="M614 692l34 -53 9 6 -35 53 -8 -6z"/>
  <path class="fil9" d="M601 683l34 -53 9 6 -35 53 -8 -6z"/>
  <path class="fil9" d="M791 812l16 -24 9 6 -16 24 -9 -6z"/>
  <path class="fil9" d="M810 784l16 -24 8 5 -15 25 -9 -6z"/>
  <path class="fil9" d="M804 821l16 -24 9 6 -16 24 -9 -6z"/>
  <path class="fil9" d="M823 793l16 -25 8 6 -16 24 -8 -5z"/>
  <path class="fil9" d="M817 830l16 -24 9 6 -16 24 -9 -6z"/>
  <path class="fil9" d="M836 801l16 -24 8 6 -16 24 -8 -6z"/>
  <path class="fil10" d="M659 685c0,1 -1,1 -1,2 0,-1 1,-1 1,-2z"/>
  <path class="fil10" d="M764 683c-28,-19 -65,-11 -84,17 -9,13 -5,32 9,41 14,10 32,6 42,-8 9,-14 28,-18 41,-8 14,9 18,28 9,42 18,-28 11,-66 -17,-84z"/>
  <path class="fil11" d="M680 700c-9,13 -5,32 9,41 14,10 32,6 42,-8 9,-14 28,-18 41,-8 14,9 18,28 9,42 -19,27 -56,35 -84,16 -28,-18 -35,-56 -17,-83z"/>
  <path class="fil12 str1" d="M903 733c0,95 -77,173 -172,173 -96,0 -173,-78 -173,-173 0,-95 77,-172 173,-172 95,0 172,77 172,172z"/>
 </g>
</svg>
